<?xml version="1.0" encoding="utf-8"?>
<!-- Generator: Adobe Illustrator 25.0.0, SVG Export Plug-In . SVG Version: 6.00 Build 0)  -->
<svg version="1.1" id="Layer_1" xmlns="http://www.w3.org/2000/svg" xmlns:xlink="http://www.w3.org/1999/xlink" x="0px" y="0px"
	 viewBox="0 0 512 512" style="enable-background:new 0 0 512 512;" xml:space="preserve">
<style type="text/css">
	.st0{fill:#FFFFFF;}
</style>
<g>
	<g>
		<g>
			<path class="st0" d="M469.3,154.6c6.8,0,13.6-2.6,18.8-7.8c10.4-10.4,10.4-27.3,0-37.7L454,75c-10.4-10.4-27.3-10.4-37.7,0
				c-8.3,8.3-9.8,20.6-5,30.6l-13.9,13.8c-30.1-25-67-42.3-107.4-48.5V51.2h16.6c9.7,0,17.6-7.9,17.6-17.6v-16
				c0-9.7-7.9-17.6-17.6-17.6H205.3c-9.7,0-17.6,7.9-17.6,17.6v16.1c0,9.7,7.9,17.6,17.6,17.6h16.6V71
				c-40.4,6.3-77.3,23.5-107.4,48.5l-13.9-13.8c4.9-9.9,3.3-22.3-4.9-30.6C85.3,64.7,68.3,64.7,58,75l-34.1,34.1
				c-10.4,10.4-10.4,27.3,0,37.7c5.2,5.2,12,7.8,18.8,7.8c6,0,12-2.1,16.9-6.2l14.7,14.7c-25.2,36-40.1,79.8-40.1,127
				C34.1,412.5,133.7,512,256,512s221.9-99.5,221.9-221.9c0-47.2-14.9-91-40.1-127l14.7-14.7C457.3,152.5,463.3,154.6,469.3,154.6z
				 M238.9,51.2H273V69c-0.3,0-0.6,0-0.9,0c-5.3-0.4-10.7-0.7-16.1-0.7s-10.8,0.3-16.1,0.7c-0.3,0-0.6,0-0.9,0L238.9,51.2
				L238.9,51.2z M71.8,136.5l17.8-17.8l12.1,12.1c-6.1,5.9-11.8,12-17.1,18.5L71.8,136.5z M443.7,290.1c0,51.6-20.9,98.4-54.7,132.3
				c-0.1,0.1-0.2,0.3-0.3,0.4c-0.1,0.1-0.3,0.2-0.4,0.3c-34,33.8-80.8,54.7-132.3,54.7c-51.6,0-98.4-20.9-132.3-54.7
				c-0.1-0.1-0.3-0.1-0.4-0.3c-0.1-0.1-0.2-0.3-0.3-0.4c-33.8-34-54.7-80.8-54.7-132.3c0-51.6,20.9-98.4,54.7-132.3
				c0.1-0.1,0.1-0.3,0.3-0.4c0.1-0.1,0.3-0.2,0.4-0.3c34-33.8,80.8-54.7,132.3-54.7c51.6,0,98.4,20.9,132.3,54.7
				c0.1,0.1,0.3,0.1,0.4,0.3c0.1,0.1,0.2,0.3,0.3,0.4C422.8,191.8,443.7,238.5,443.7,290.1z M427.4,149.3
				c-5.3-6.5-11-12.6-17.1-18.5l12.1-12.1l17.8,17.8L427.4,149.3z"/>
			<path class="st0" d="M401.1,281.6h25.2c-2-40.6-18.2-77.5-43.9-105.8l-17.8,17.8c-1.7,1.7-3.8,2.5-6,2.5s-4.4-0.8-6-2.5
				c-3.3-3.3-3.3-8.7,0-12.1l17.8-17.8c-28.3-25.6-65.2-41.8-105.8-43.9V145c0,4.7-3.8,8.5-8.5,8.5s-8.5-3.8-8.5-8.5v-25.2
				c-40.6,2-77.5,18.2-105.8,43.9l17.8,17.8c3.3,3.3,3.3,8.7,0,12.1c-1.7,1.7-3.8,2.5-6,2.5s-4.4-0.8-6-2.5l-17.8-17.8
				c-25.8,28.3-42,65.2-44,105.8H111c4.7,0,8.5,3.8,8.5,8.5s-3.8,8.5-8.5,8.5H85.8c2,40.6,18.2,77.5,43.9,105.8l17.8-17.8
				c3.3-3.3,8.7-3.3,12.1,0c3.3,3.3,3.3,8.7,0,12.1l-17.8,17.8c28.3,25.6,65.2,41.8,105.8,43.9v-25.2c0-4.7,3.8-8.5,8.5-8.5
				s8.5,3.8,8.5,8.5v25.2c40.6-2,77.5-18.2,105.8-43.9l-17.8-17.8c-3.3-3.3-3.3-8.7,0-12.1s8.7-3.3,12.1,0l17.8,17.8
				c25.6-28.3,41.8-65.2,43.9-105.8h-25.2c-4.7,0-8.5-3.8-8.5-8.5C392.5,285.4,396.4,281.6,401.1,281.6z M256,324.1
				c-18.8,0-34-15.3-34-34c0-15.8,10.9-29,25.5-32.8v-78c0-4.7,3.8-8.5,8.5-8.5c4.7,0,8.5,3.8,8.5,8.5v78
				c14.6,3.8,25.5,17,25.5,32.8C290,308.8,274.8,324.1,256,324.1z"/>
			<path class="st0" d="M256,273.1c-9.4,0-17,7.6-17,17s7.6,17,17,17s17-7.6,17-17S265.4,273.1,256,273.1z"/>
		</g>
	</g>
</g>
</svg>
